<?xml version="1.0" encoding="UTF-8"?>
<svg version="1.1" xmlns="http://www.w3.org/2000/svg" width="2048" height="564">
<path d="M0 0 C1.7607486 0.00273422 1.7607486 0.00273422 3.55706787 0.00552368 C22.34808 0.0544445 40.8145942 0.6460862 59.4375 3.3125 C61.19126953 3.56193359 61.19126953 3.56193359 62.98046875 3.81640625 C87.95629188 7.52568691 113.09268654 13.57957103 136.4375 23.3125 C137.23768555 23.64330566 138.03787109 23.97411133 138.86230469 24.31494141 C164.38633957 34.99722267 187.0239808 49.67888842 207.4375 68.3125 C208.58798828 69.33730469 208.58798828 69.33730469 209.76171875 70.3828125 C230.07565448 89.41940135 244.35333266 119.31488145 245.56176758 147.17773438 C246.3926206 181.68771633 240.36043209 213.27615432 217.4375 240.3125 C216.99712402 240.83505371 216.55674805 241.35760742 216.10302734 241.89599609 C208.73110421 250.54486452 200.63502923 257.66651118 191.4375 264.3125 C190.86193359 264.7362793 190.28636719 265.16005859 189.69335938 265.59667969 C166.72892801 282.36251875 138.32717799 292.5283291 110.4375 297.3125 C109.63119141 297.45913086 108.82488281 297.60576172 107.99414062 297.75683594 C79.94165234 302.70915448 51.36697929 301.21784238 23.4375 296.3125 C22.52339355 296.15716797 21.60928711 296.00183594 20.66748047 295.84179688 C4.5299542 292.98253048 -10.99231672 287.48060472 -26.55743408 282.47192383 C-52.36103873 274.17105922 -77.93762889 266.26139606 -105.03515625 263.70703125 C-108.5625 263.3125 -108.5625 263.3125 -111.5625 262.3125 C-113.5778636 268.14644727 -115.41784329 274.02519415 -117.1875 279.9375 C-117.40559326 280.65349365 -117.62368652 281.3694873 -117.84838867 282.10717773 C-123.17071327 300.06407624 -121.40547416 319.73980022 -112.5625 336.3125 C-94.09394983 366.2072788 -62.41160024 380.32858203 -29.4375 388.5625 C16.38671311 399.28590378 65.19978309 395.98578596 110.1875 383 C120.58507981 380.0367588 130.58554938 377.8108494 140.6328125 383.12890625 C145.02022621 386.00636589 146.58614383 389.10654117 147.875 394.0625 C148.910041 400.40447851 147.61369975 405.06361255 144.05859375 410.37109375 C122.13072734 437.47710692 75.58913551 451.9698039 43.4375 460.3125 C42.53499512 460.54807617 41.63249023 460.78365234 40.70263672 461.02636719 C17.67394003 466.91909081 -6.30566216 470.40931514 -30.08984375 470.515625 C-31.14880859 470.52263931 -32.20777344 470.52965363 -33.29882812 470.53688049 C-36.69926257 470.55428647 -40.09952263 470.56073342 -43.5 470.5625 C-44.66411407 470.56317474 -45.82822815 470.56384949 -47.02761841 470.56454468 C-64.75107215 470.54822769 -82.01906293 470.00321121 -99.5625 467.3125 C-100.73603027 467.14089355 -101.90956055 466.96928711 -103.11865234 466.79248047 C-137.34674414 461.70261539 -171.45401861 452.69630969 -202.5625 437.3125 C-203.77607178 436.71501953 -203.77607178 436.71501953 -205.01416016 436.10546875 C-223.14039916 427.09064296 -239.10454753 416.26234718 -254.0625 402.58984375 C-255.71369772 401.08570582 -257.38025691 399.59824045 -259.0625 398.12890625 C-299.3603445 362.80532693 -325.72271053 309.61484069 -329.5625 256.3125 C-332.28573335 200.6433259 -311.29099191 148.36400681 -274.1875 107.1875 C-272.32597486 105.21340476 -270.45490817 103.25632588 -268.5625 101.3125 C-267.95116211 100.68069824 -267.33982422 100.04889648 -266.70996094 99.39794922 C-258.72419088 91.17615616 -250.69704802 83.26861922 -241.5625 76.3125 C-240.9859668 75.86487305 -240.40943359 75.41724609 -239.81542969 74.95605469 C-189.01980925 35.52434312 -128.53507653 13.40305439 -65.3125 4.0625 C-64.29841064 3.91127686 -63.28432129 3.76005371 -62.23950195 3.60424805 C-41.57141037 0.7493077 -20.84285439 -0.06776202 0 0 Z " fill="#8BC441" transform="translate(409.5625,48.6875)"/>
<path d="M0 0 C-0.1861084 0.54962402 -0.3722168 1.09924805 -0.56396484 1.66552734 C-2.34436107 6.95941898 -4.03632045 12.27056151 -5.625 17.625 C-5.8415625 18.3365625 -6.058125 19.048125 -6.28125 19.78125 C-11.60998141 37.74104844 -9.84502352 57.42345948 -1 74 C17.46855017 103.8947788 49.15089976 118.01608203 82.125 126.25 C127.94921311 136.97340378 176.76228309 133.67328596 221.75 120.6875 C232.14757981 117.7242588 242.14804938 115.4983494 252.1953125 120.81640625 C256.58272621 123.69386589 258.14864383 126.79404117 259.4375 131.75 C260.472541 138.09197851 259.17619975 142.75111255 255.62109375 148.05859375 C233.69322734 175.16460692 187.15163551 189.6573039 155 198 C154.09749512 198.23557617 153.19499023 198.47115234 152.26513672 198.71386719 C129.23644003 204.60659081 105.25683784 208.09681514 81.47265625 208.203125 C79.88420898 208.21364647 79.88420898 208.21364647 78.26367188 208.22438049 C74.86323743 208.24178647 71.46297737 208.24823342 68.0625 208.25 C66.89838593 208.25067474 65.73427185 208.25134949 64.53488159 208.25204468 C46.81142785 208.23572769 29.54343707 207.69071121 12 205 C10.23970459 204.74259033 10.23970459 204.74259033 8.44384766 204.47998047 C-33.44551974 198.25085062 -72.9553114 185.496381 -110 165 C-110.97066406 164.47921875 -111.94132812 163.9584375 -112.94140625 163.421875 C-124.61624573 156.54735023 -132.75329089 138.04715131 -136.48046875 125.23046875 C-142.38396545 99.88538143 -139.07112144 75.56928279 -125.75 53.25 C-106.99137162 25.38361886 -75.73285105 9.41326357 -43.5234375 2.84765625 C-29.00103493 0.05155188 -14.76488739 -0.26781573 0 0 Z " fill="#218DCC" transform="translate(298,311)"/>
<path d="M0 0 C1.7607486 0.00273422 1.7607486 0.00273422 3.55706787 0.00552368 C22.34808 0.0544445 40.8145942 0.6460862 59.4375 3.3125 C61.19126953 3.56193359 61.19126953 3.56193359 62.98046875 3.81640625 C87.95629188 7.52568691 113.09268654 13.57957103 136.4375 23.3125 C137.23768555 23.64330566 138.03787109 23.97411133 138.86230469 24.31494141 C160.38865401 33.32411724 180.64708273 45.14237675 198.4375 60.3125 C194.9785515 61.46548283 194.40570284 61.17337496 191.1484375 59.87109375 C190.29846191 59.53770996 189.44848633 59.20432617 188.57275391 58.86083984 C187.20642822 58.31097412 187.20642822 58.31097412 185.8125 57.75 C183.89113866 56.99998487 181.96925699 56.25130144 180.046875 55.50390625 C179.09232422 55.13023926 178.13777344 54.75657227 177.15429688 54.37158203 C163.16494475 48.9181484 149.01769177 44.88554087 134.4375 41.3125 C133.5815625 41.0973877 132.725625 40.88227539 131.84375 40.66064453 C119.35471564 37.53594668 106.75357356 35.24400708 94.0625 33.125 C93.30667633 32.99834961 92.55085266 32.87169922 91.77212524 32.74121094 C68.32395758 28.83557303 45.36671031 27.12554707 21.58740234 27.12719727 C18.10371392 27.12502569 14.6203509 27.10684749 11.13671875 27.08789062 C-9.9890645 27.03370689 -30.99003691 28.22788256 -51.875 31.5 C-52.55130463 31.60410187 -53.22760925 31.70820374 -53.92440796 31.81546021 C-68.68590885 34.10618889 -83.13563258 37.43161447 -97.5625 41.3125 C-98.47741211 41.55581055 -99.39232422 41.79912109 -100.33496094 42.04980469 C-144.32182835 53.93044811 -186.40831945 75.34983787 -221.5625 104.3125 C-222.12211426 104.76915039 -222.68172852 105.22580078 -223.25830078 105.69628906 C-236.91597655 116.89161543 -249.88859954 129.20641942 -260.5625 143.3125 C-261.06426758 143.96492676 -261.56603516 144.61735352 -262.08300781 145.28955078 C-287.23929909 178.08073979 -309.37358455 216.90784906 -310.5625 259.3125 C-310.58828125 260.06660156 -310.6140625 260.82070313 -310.640625 261.59765625 C-311.54240305 291.13088755 -305.72567139 318.80030913 -292.5625 345.3125 C-292.24700195 345.95977051 -291.93150391 346.60704102 -291.60644531 347.27392578 C-279.66669048 371.56792434 -261.68500429 391.4580682 -242.5625 410.3125 C-240.89467873 411.97801127 -239.22767391 413.64434191 -237.5625 415.3125 C-246.44292725 411.30001338 -253.75005034 403.32659901 -260.8125 396.75 C-261.4734668 396.13745361 -262.13443359 395.52490723 -262.81542969 394.89379883 C-267.37062039 390.60719787 -271.52883781 386.09037814 -275.5625 381.3125 C-276.09214355 380.68899658 -276.62178711 380.06549316 -277.16748047 379.4230957 C-313.71668838 336.04008345 -333.93059257 282.39142862 -329.09790039 225.34423828 C-324.24097187 178.34959802 -301.24085652 134.87874441 -268.5625 101.3125 C-267.95116211 100.68069824 -267.33982422 100.04889648 -266.70996094 99.39794922 C-258.72419088 91.17615616 -250.69704802 83.26861922 -241.5625 76.3125 C-240.9859668 75.86487305 -240.40943359 75.41724609 -239.81542969 74.95605469 C-189.01980925 35.52434312 -128.53507653 13.40305439 -65.3125 4.0625 C-64.29841064 3.91127686 -63.28432129 3.76005371 -62.23950195 3.60424805 C-41.57141037 0.7493077 -20.84285439 -0.06776202 0 0 Z " fill="#1CAB4C" transform="translate(409.5625,48.6875)"/>
<path d="M0 0 C3.74074544 2.58289566 6.2045939 4.96271318 7.23046875 9.4765625 C7.42576172 10.63285156 7.42576172 10.63285156 7.625 11.8125 C8.31464844 11.35359375 9.00429687 10.8946875 9.71484375 10.421875 C21.99491625 2.40361093 34.24079725 -3.39366785 49.234375 -0.72265625 C57.11791968 1.29600898 61.91498582 5.30283861 66.625 11.8125 C67.13546875 11.43738281 67.6459375 11.06226563 68.171875 10.67578125 C80.1968699 2.21137881 94.01459358 -2.97938724 108.82421875 -0.875 C115.74545049 0.60152944 120.74548565 3.9263403 124.625 9.8125 C128.45894757 17.92540691 128.77340153 25.96027062 128.73852539 34.78686523 C128.73867142 35.76324448 128.73881744 36.73962372 128.7389679 37.74559021 C128.73827447 40.95411445 128.73050887 44.16257972 128.72265625 47.37109375 C128.72079004 49.60311349 128.7193671 51.83513364 128.71836853 54.06715393 C128.71455932 59.92789856 128.70474269 65.78861823 128.69366455 71.64935303 C128.68341608 77.63537254 128.67886356 83.62139611 128.67382812 89.60742188 C128.66311896 101.34246063 128.64553511 113.07747432 128.625 124.8125 C117.405 124.8125 106.185 124.8125 94.625 124.8125 C94.595271 120.96754883 94.595271 120.96754883 94.56494141 117.04492188 C94.49792166 108.55918578 94.42028388 100.07357049 94.33747292 91.58797455 C94.28760741 86.44507017 94.24127665 81.30218536 94.203125 76.15917969 C94.16614893 71.19240602 94.11975586 66.22580009 94.06693649 61.25917053 C94.04845789 59.36787367 94.03332602 57.47654095 94.02165604 55.58518982 C94.00468134 52.92836469 93.97562008 50.27191825 93.94384766 47.61523438 C93.94168747 46.83983307 93.93952728 46.06443176 93.93730164 45.26553345 C93.85975456 40.16253721 93.16092288 35.69423308 91.625 30.8125 C88.17918347 29.08959174 85.45497618 29.50196139 81.625 29.8125 C77.665 31.4625 73.705 33.1125 69.625 34.8125 C69.295 64.5125 68.965 94.2125 68.625 124.8125 C57.405 124.8125 46.185 124.8125 34.625 124.8125 C34.595271 120.86095947 34.595271 120.86095947 34.56494141 116.82958984 C34.49799926 108.1203234 34.42036014 99.4111759 34.33747292 90.70204735 C34.2875523 85.42232256 34.24122177 80.14261737 34.203125 74.86279297 C34.16621887 69.76635282 34.11984423 64.67007833 34.06693649 59.57378006 C34.0484209 57.63059015 34.03330249 55.68736477 34.02165604 53.74412155 C34.00474516 51.0198347 33.97569829 48.29592488 33.94384766 45.57177734 C33.94168747 44.77048401 33.93952728 43.96919067 33.93730164 43.14361572 C33.87080525 38.68394857 33.45020527 34.96650409 31.625 30.8125 C28.39165772 29.19582886 25.13050382 29.35863579 21.625 29.8125 C19.22151203 30.67791302 16.98531045 31.69464637 14.703125 32.83984375 C12.625 33.8125 12.625 33.8125 8.625 34.8125 C8.625 64.5125 8.625 94.2125 8.625 124.8125 C-2.595 124.8125 -13.815 124.8125 -25.375 124.8125 C-25.375 84.2225 -25.375 43.6325 -25.375 1.8125 C-7.52884615 -2.64903846 -7.52884615 -2.64903846 0 0 Z " fill="#040608" transform="translate(1792.375,209.1875)"/>
<path d="M0 0 C0.80566406 -0.00386719 1.61132812 -0.00773438 2.44140625 -0.01171875 C3.24964844 -0.00011719 4.05789063 0.01148438 4.890625 0.0234375 C5.71433594 0.01183594 6.53804687 0.00023437 7.38671875 -0.01171875 C12.05726571 0.01084428 15.47231167 0.19216363 19.140625 3.3984375 C21.66794072 8.03259617 21.48648248 12.71247156 21.5546875 17.85546875 C21.57405365 18.75843185 21.5934198 19.66139496 21.6133728 20.59172058 C21.67296582 23.46469797 21.71947269 26.33771587 21.765625 29.2109375 C21.80382345 31.16342855 21.84287627 33.11590309 21.8828125 35.06835938 C21.97865069 39.84491734 22.06275652 44.62155417 22.140625 49.3984375 C22.72360352 48.99214111 23.30658203 48.58584473 23.90722656 48.16723633 C28.11575164 45.28783306 32.02151256 42.72097969 36.890625 41.0859375 C37.77234375 40.78042969 38.6540625 40.47492188 39.5625 40.16015625 C49.35702837 37.26631832 59.6677521 37.35093726 69.140625 41.3984375 C75.78572374 45.61294643 79.56440376 50.94875725 81.72994995 58.43598938 C83.92989704 68.70807067 83.38921478 79.24575622 83.3359375 89.69140625 C83.33220191 91.85044727 83.32935752 94.00949 83.32736206 96.16853333 C83.31976862 101.81882504 83.30015744 107.46901202 83.2779541 113.1192627 C83.25740276 118.89785343 83.24834057 124.67646128 83.23828125 130.45507812 C83.21690711 141.76958439 83.18176041 153.0839858 83.140625 164.3984375 C71.590625 164.3984375 60.040625 164.3984375 48.140625 164.3984375 C48.12604248 161.72854736 48.11145996 159.05865723 48.09643555 156.30786133 C48.04609982 147.48679791 47.97950648 138.66591121 47.90491009 129.84502125 C47.86018155 124.49687519 47.8209308 119.14880575 47.79418945 113.80053711 C47.76818141 108.63920665 47.72779647 103.47817064 47.67743874 98.31702232 C47.66075315 96.34789377 47.64924942 94.37871428 47.64301109 92.40952492 C47.63338849 89.65136468 47.60535115 86.89396062 47.57299805 84.13598633 C47.57443314 83.32174698 47.57586823 82.50750763 47.5773468 81.66859436 C47.50134553 77.08764036 47.01814858 74.02943399 44.140625 70.3984375 C40.64996009 68.65310505 36.9574189 68.94870675 33.140625 69.3984375 C30.6784078 70.24881079 28.41431381 71.2615931 26.0859375 72.42578125 C24.140625 73.3984375 24.140625 73.3984375 21.140625 74.3984375 C21.140625 104.0984375 21.140625 133.7984375 21.140625 164.3984375 C9.590625 164.3984375 -1.959375 164.3984375 -13.859375 164.3984375 C-13.859375 111.2684375 -13.859375 58.1384375 -13.859375 3.3984375 C-3.71668068 0.01753939 -3.71668068 0.01753939 0 0 Z " fill="#040608" transform="translate(907.859375,169.6015625)"/>
<path d="M0 0 C12.91310607 9.99282766 17.21536291 26.14748168 19.2109375 41.7109375 C20.42600143 64.8491067 20.64249354 88.31517908 5.0234375 107.0859375 C-5.51691061 118.1037846 -19.77516896 121.51993808 -34.5390625 121.9609375 C-47.0808076 121.80278182 -56.28648506 117.89082242 -65.4765625 109.5234375 C-69.61471285 105.16496896 -72.24554159 100.11591943 -74.7890625 94.7109375 C-75.170625 93.90269531 -75.5521875 93.09445312 -75.9453125 92.26171875 C-84.56675904 71.45921327 -84.73044502 43.0135235 -76.4765625 22.0859375 C-70.70743808 9.77503807 -62.79766437 0.51655091 -49.7890625 -4.2890625 C-33.32705927 -8.88955498 -14.78054366 -9.8058623 0 0 Z M-41.7890625 22.7109375 C-50.58790102 36.40512981 -48.30531238 63.06662124 -45.5390625 78.2734375 C-44.04604566 84.50364328 -42.50608645 89.30443058 -37.6015625 93.6484375 C-32.44020531 95.59828355 -27.86753217 95.36756846 -22.6484375 93.71875 C-19.11671454 91.23882431 -18.74582409 89.69333658 -17.88964844 85.60620117 C-17.75333008 84.81576416 -17.61701172 84.02532715 -17.4765625 83.2109375 C-17.31833008 82.39794189 -17.16009766 81.58494629 -16.99707031 80.74731445 C-15.86996595 74.75853001 -14.99864501 68.80705483 -14.7890625 62.7109375 C-14.74910156 61.73511719 -14.70914062 60.75929688 -14.66796875 59.75390625 C-14.39788108 46.86913544 -14.33443622 32.53472692 -22.8515625 22.2109375 C-28.65832054 19.24578446 -36.04908668 19.63772074 -41.7890625 22.7109375 Z " fill="#040708" transform="translate(1729.7890625,215.2890625)"/>
<path d="M0 0 C12.95193298 11.5328965 16.51201771 29.23407319 17.72851562 45.78735352 C18.8515054 66.10411017 17.1600415 87.95565354 4.03515625 104.47265625 C-6.33093722 115.70102874 -19.37797276 118.92582033 -34.04296875 120.28125 C-46.08401445 120.69825591 -57.10168032 117.08454332 -66.15234375 109.1015625 C-81.08546515 93.68117994 -84.31883839 71.59297461 -84 51 C-83.3863824 33.18068445 -79.68635515 14.92937934 -66.25 2.125 C-48.64868516 -12.12693843 -18.10369673 -14.04155983 0 0 Z M-44 21 C-51.48429865 38.61011447 -52.22983862 66.23049418 -45.25 84 C-43.11419796 88.24813373 -41.13602874 90.58081338 -37 93 C-31.33617846 94.0473494 -26.81232587 93.26949288 -22 90 C-20.89392701 87.3030001 -20.23456668 85.18033719 -19.6875 82.375 C-19.53216797 81.70082031 -19.37683594 81.02664063 -19.21679688 80.33203125 C-15.54993682 63.74460423 -13.10055818 38.89172085 -21.921875 23.6875 C-23.89647869 20.83869371 -23.89647869 20.83869371 -27 19 C-29.80273217 18.68174268 -29.80273217 18.68174268 -32.875 18.75 C-33.90367188 18.74484375 -34.93234375 18.7396875 -35.9921875 18.734375 C-39.22505992 19.01987542 -41.2435348 19.26409458 -44 21 Z " fill="#040608" transform="translate(1148,217)"/>
<path d="M0 0 C9.53283644 7.48643148 13.55049204 20.09323624 15.18359375 31.71484375 C15.29445313 32.42125 15.4053125 33.12765625 15.51953125 33.85546875 C16.2950995 39.85040172 16.28562946 45.86710864 16.30859375 51.90234375 C16.3132666 52.75812012 16.31793945 53.61389648 16.32275391 54.49560547 C16.28962043 67.60881707 16.28962043 67.60881707 14.18359375 69.71484375 C12.46493966 69.80843565 10.74243631 69.83228986 9.02124023 69.82836914 C7.92017441 69.82829361 6.81910858 69.82821808 5.68467712 69.82814026 C4.48678055 69.82297897 3.28888397 69.81781769 2.0546875 69.8125 C0.83531998 69.81108505 -0.38404755 69.8096701 -1.6403656 69.80821228 C-5.55323695 69.80259342 -9.46605206 69.79003771 -13.37890625 69.77734375 C-16.02408772 69.77233118 -18.66927008 69.76776785 -21.31445312 69.76367188 C-27.81512351 69.75261786 -34.31576086 69.73586139 -40.81640625 69.71484375 C-40.54222675 71.45597814 -40.2560017 73.19521795 -39.96484375 74.93359375 C-39.80677246 75.90232422 -39.64870117 76.87105469 -39.48583984 77.86914062 C-38.26306154 83.06706328 -35.60927583 87.08016854 -31.69140625 90.65234375 C-24.27050112 94.85752332 -13.20884975 93.32818714 -5.25390625 91.21484375 C-4.34511719 90.93640625 -3.43632813 90.65796875 -2.5 90.37109375 C0.53492949 89.62892759 3.07040426 89.45326722 6.18359375 89.71484375 C9.28524144 92.2650874 10.90925791 93.89183622 12.18359375 97.71484375 C12.25410489 100.45349662 12.2771714 103.16511963 12.24609375 105.90234375 C12.24158203 106.65193359 12.23707031 107.40152344 12.23242188 108.17382812 C12.22065729 110.02086758 12.2027224 111.86786588 12.18359375 113.71484375 C-6.33620307 122.12688791 -28.21484419 124.77979766 -47.81640625 118.71484375 C-58.15089866 114.64815388 -65.73928624 107.5146527 -70.62890625 97.52734375 C-74.61789708 87.78261183 -77.47424572 77.26479327 -77.81640625 66.71484375 C-77.8421875 66.06064453 -77.86796875 65.40644531 -77.89453125 64.73242188 C-78.67644686 42.50647055 -75.76524627 21.3955847 -60.06640625 4.46484375 C-44.52740072 -10.31042994 -17.65337442 -11.55236822 0 0 Z M-37.81640625 22.71484375 C-41.0839889 30.57229932 -41.42333549 39.31126206 -41.81640625 47.71484375 C-33.09940451 47.85853059 -24.50319726 47.43445957 -15.81640625 46.71484375 C-15.22709415 34.21132554 -15.22709415 34.21132554 -20.10546875 22.984375 C-22.71373777 20.49466367 -24.77395635 19.72090802 -28.31640625 19.21484375 C-33.4998305 19.92250075 -33.4998305 19.92250075 -37.81640625 22.71484375 Z " fill="#040809" transform="translate(782.81640625,215.28515625)"/>
<path d="M0 0 C12.82829112 12.22318304 14.62332993 30.61251776 15.09375 47.33203125 C15.15919202 54.22798407 15.05557786 61.17132344 14 68 C13 69 13 69 10.79173279 69.12025452 C9.81688431 69.11803391 8.84203583 69.11581329 7.83764648 69.11352539 C6.73658066 69.11344986 5.63551483 69.11337433 4.50108337 69.11329651 C3.3031868 69.10813522 2.10529022 69.10297394 0.87109375 69.09765625 C-0.34827377 69.0962413 -1.5676413 69.09482635 -2.82395935 69.09336853 C-6.7368307 69.08774967 -10.64964581 69.07519396 -14.5625 69.0625 C-17.20768147 69.05748743 -19.85286383 69.0529241 -22.49804688 69.04882812 C-28.99871726 69.03777411 -35.49935461 69.02101764 -42 69 C-41.57343345 71.24714883 -41.13169722 73.49142155 -40.68359375 75.734375 C-40.43923584 76.98444336 -40.19487793 78.23451172 -39.94311523 79.52246094 C-38.48870478 84.88529359 -35.82945076 88.1072835 -31.27734375 91.15234375 C-28.04166737 92.35670357 -24.90666514 92.33824104 -21.5 92.3125 C-20.79311035 92.31121094 -20.0862207 92.30992187 -19.35791016 92.30859375 C-13.86608698 92.20939622 -8.90953895 91.28432724 -3.6484375 89.65625 C-0.62619274 88.90737519 1.89761858 88.73969014 5 89 C8.10164769 91.55024365 9.72566416 93.17699247 11 97 C11.07051114 99.73865287 11.09357765 102.45027588 11.0625 105.1875 C11.05798828 105.93708984 11.05347656 106.68667969 11.04882812 107.45898438 C11.03706354 109.30602383 11.01912865 111.15302213 11 113 C-7.51035572 121.40775583 -29.40934876 124.07747582 -49 118 C-61.28230997 113.08076931 -68.10204401 104.46664812 -73.52734375 92.6328125 C-82.05798873 71.58904637 -81.9024074 43.65626224 -73.6875 22.5625 C-67.20797422 8.31140015 -58.3681973 -0.54188341 -43.8125 -6.25 C-29.11257456 -10.16998012 -12.53233397 -9.07715778 0 0 Z M-39 22 C-42.59662274 29.72504185 -42.64570101 38.63121347 -43 47 C-34.28299826 47.14368684 -25.68679101 46.71961582 -17 46 C-16.42042791 33.51125464 -16.42042791 33.51125464 -21.5 22.5 C-24.46166616 19.53833384 -25.10410653 19.06891488 -29.25 18.75 C-33.57392102 19.0382614 -35.5897574 19.28730702 -39 22 Z " fill="#040708" transform="translate(1534,216)"/>
<path d="M0 0 C10.43722202 10.72714485 13.42313706 26.14829304 13.3828125 40.6171875 C13.38376923 41.38177277 13.38472595 42.14635803 13.38571167 42.93411255 C13.38638766 44.53582848 13.38457421 46.13754725 13.38037109 47.73925781 C13.37496987 50.20123322 13.38035833 52.66302987 13.38671875 55.125 C13.38605873 56.68489624 13.38477916 58.24479236 13.3828125 59.8046875 C13.38483673 60.54314911 13.38686096 61.28161072 13.38894653 62.04244995 C13.36498158 67.19751842 13.36498158 67.19751842 12.25 68.3125 C10.53134591 68.4060919 8.80884256 68.42994611 7.08764648 68.42602539 C5.98658066 68.42594986 4.88551483 68.42587433 3.75108337 68.42579651 C2.5531868 68.42063522 1.35529022 68.41547394 0.12109375 68.41015625 C-1.09827377 68.4087413 -2.3176413 68.40732635 -3.57395935 68.40586853 C-7.4868307 68.40024967 -11.39964581 68.38769396 -15.3125 68.375 C-17.95768147 68.36998743 -20.60286383 68.3654241 -23.24804688 68.36132812 C-29.74871726 68.35027411 -36.24935461 68.33351764 -42.75 68.3125 C-42.32343345 70.55964883 -41.88169722 72.80392155 -41.43359375 75.046875 C-41.18923584 76.29694336 -40.94487793 77.54701172 -40.69311523 78.83496094 C-39.23870478 84.19779359 -36.57945076 87.4197835 -32.02734375 90.46484375 C-28.79166737 91.66920357 -25.65666514 91.65074104 -22.25 91.625 C-21.54311035 91.62371094 -20.8362207 91.62242187 -20.10791016 91.62109375 C-14.61608698 91.52189622 -9.65953895 90.59682724 -4.3984375 88.96875 C-1.3777091 88.22025093 1.14908676 88.05657869 4.25 88.3125 C7.66541295 91.04483036 9.56686174 93.01018245 10.25 97.3125 C10.31898242 99.90623914 10.34434752 102.47060197 10.3125 105.0625 C10.30798828 105.75988281 10.30347656 106.45726562 10.29882812 107.17578125 C10.2871002 108.88805803 10.26916653 110.60029033 10.25 112.3125 C-9.15741832 121.12771874 -31.68832045 123.37387721 -52.0546875 116.5390625 C-63.74097039 111.42338043 -70.26335191 101.66032777 -74.98828125 90.31835938 C-83.28769922 68.46322538 -82.22991972 39.85970983 -73.31640625 18.4140625 C-67.41823973 6.73539862 -59.26967882 -1.35330106 -47.0625 -6.0625 C-30.40850251 -11.50528689 -14.69218727 -9.01566037 0 0 Z M-39.75 21.3125 C-43.34662274 29.03754185 -43.39570101 37.94371347 -43.75 46.3125 C-35.03299826 46.45618684 -26.43679101 46.03211582 -17.75 45.3125 C-17.17042791 32.82375464 -17.17042791 32.82375464 -22.25 21.8125 C-25.21166616 18.85083384 -25.85410653 18.38141488 -30 18.0625 C-34.32392102 18.3507614 -36.3397574 18.59980702 -39.75 21.3125 Z " fill="#040708" transform="translate(1363.75,216.6875)"/>
<path d="M0 0 C0.76151367 0.00249756 1.52302734 0.00499512 2.30761719 0.00756836 C3.74089355 0.02122437 3.74089355 0.02122437 5.203125 0.03515625 C9.781875 0.06609375 9.781875 0.06609375 14.453125 0.09765625 C14.453125 9.66765625 14.453125 19.23765625 14.453125 29.09765625 C22.043125 29.09765625 29.633125 29.09765625 37.453125 29.09765625 C37.453125 37.67765625 37.453125 46.25765625 37.453125 55.09765625 C29.863125 55.09765625 22.273125 55.09765625 14.453125 55.09765625 C14.49345089 63.63422976 14.550517 72.17018859 14.63702774 80.70640182 C14.67653009 84.6701701 14.70870475 88.63371531 14.72412109 92.59765625 C14.73926997 96.42344444 14.77368275 100.24861951 14.82143402 104.07413483 C14.83626633 105.53330403 14.84416708 106.99256077 14.84500885 108.45180511 C14.84737495 110.49685454 14.87441982 112.54020455 14.90722656 114.58496094 C14.91610901 115.7485614 14.92499146 116.91216187 14.93414307 118.11102295 C15.55957873 121.7102754 16.58657857 122.90137497 19.453125 125.09765625 C21.83164517 125.61559381 21.83164517 125.61559381 24.328125 125.41015625 C25.63523437 125.35794922 25.63523437 125.35794922 26.96875 125.3046875 C29.83696097 125.06566992 32.63608259 124.69071781 35.453125 124.09765625 C37.11906952 131.40840307 37.96484787 138.61930658 38.453125 146.09765625 C29.25059244 151.11721946 20.95613625 152.4581656 10.515625 152.47265625 C9.59072266 152.49714844 8.66582031 152.52164063 7.71289062 152.546875 C0.00212116 152.57929589 -6.7242631 151.00035504 -12.94921875 146.2734375 C-13.45582031 145.65855469 -13.96242188 145.04367187 -14.484375 144.41015625 C-15.27134766 143.50716797 -15.27134766 143.50716797 -16.07421875 142.5859375 C-21.50980075 133.40167826 -20.94038368 123.87730091 -20.83984375 113.59375 C-20.83423981 111.90267821 -20.82997349 110.2116015 -20.82698059 108.52052307 C-20.81559453 104.09652972 -20.78618202 99.67283772 -20.75286865 95.2489624 C-20.72203232 90.72395909 -20.70844643 86.1989065 -20.69335938 81.67382812 C-20.66130548 72.81495132 -20.60858949 63.95637613 -20.546875 55.09765625 C-25.166875 55.09765625 -29.786875 55.09765625 -34.546875 55.09765625 C-34.546875 46.51765625 -34.546875 37.93765625 -34.546875 29.09765625 C-29.596875 29.09765625 -24.646875 29.09765625 -19.546875 29.09765625 C-19.60875 26.78765625 -19.670625 24.47765625 -19.734375 22.09765625 C-19.76734092 16.08493063 -19.6576642 11.34711302 -16.546875 6.09765625 C-11.50017725 1.84385793 -6.57393909 -0.04441851 0 0 Z " fill="#040608" transform="translate(1237.546875,183.90234375)"/>
<path d="M0 0 C2.825625 0.04125 5.65125 0.0825 8.5625 0.125 C8.5625 9.695 8.5625 19.265 8.5625 29.125 C16.4825 29.125 24.4025 29.125 32.5625 29.125 C32.5625 37.705 32.5625 46.285 32.5625 55.125 C24.6425 55.125 16.7225 55.125 8.5625 55.125 C8.64808344 63.25299108 8.74187564 71.3807613 8.85002708 79.50847912 C8.89992269 83.28271513 8.9462531 87.05692407 8.984375 90.83129883 C9.02131322 94.47539093 9.06769591 98.11925276 9.12056351 101.76314735 C9.13906221 103.15172591 9.15418682 104.54035374 9.16584396 105.92900658 C9.18278326 107.87749335 9.2129508 109.8258514 9.24365234 111.77416992 C9.25697601 112.8822551 9.27029968 113.99034027 9.2840271 115.13200378 C9.57129035 118.21947769 10.12578209 120.38331682 11.5625 123.125 C16.57704385 126.46802923 22.37859182 125.42622871 28.1875 124.625 C28.97125 124.46 29.755 124.295 30.5625 124.125 C32.02051591 131.44339056 33.01548368 138.68269906 33.5625 146.125 C24.35996744 151.14456321 16.06551125 152.48550935 5.625 152.5 C4.70009766 152.52449219 3.77519531 152.54898438 2.82226562 152.57421875 C-4.88850384 152.60663964 -11.6148881 151.02769879 -17.83984375 146.30078125 C-27.41165036 134.68309231 -26.58844947 120.94951384 -26.53515625 106.58984375 C-26.53328768 105.10055082 -26.53186585 103.61125727 -26.53086853 102.1219635 C-26.52707789 98.23074603 -26.5172777 94.33956678 -26.50616455 90.44836426 C-26.49587559 86.46623247 -26.49135498 82.48409442 -26.48632812 78.50195312 C-26.47565181 70.7096161 -26.4580836 62.91731831 -26.4375 55.125 C-30.7275 55.125 -35.0175 55.125 -39.4375 55.125 C-39.4375 46.545 -39.4375 37.965 -39.4375 29.125 C-34.4875 29.125 -29.5375 29.125 -24.4375 29.125 C-24.499375 26.815 -24.56125 24.505 -24.625 22.125 C-24.68572574 14.89007246 -24.38347455 9.23463981 -19.1875 3.75 C-12.95374717 0.06641878 -7.05092442 -0.14655651 0 0 Z " fill="#040708" transform="translate(847.4375,183.875)"/>
<path d="M0 0 C0.495 0.495 0.495 0.495 1 1 C0.90641037 18.24389021 0.90641037 18.24389021 -4.3828125 24.68359375 C-6.66856965 26.54422216 -8.7802754 26.39732722 -11.640625 26.30859375 C-14.30428269 25.96020144 -16.68768474 25.24100059 -19.25 24.4375 C-25.34747236 22.60740311 -30.76510627 23.09686531 -37 24 C-37.6512183 26.66545164 -38.29607161 29.33219056 -38.9375 32 C-39.11990234 32.74378906 -39.30230469 33.48757812 -39.49023438 34.25390625 C-43.23473277 49.91271773 -44.95881557 70.13685693 -36.6875 84.625 C-33.34347333 89.27279897 -29.85854593 91.56633928 -24.25 92.875 C-17.02200015 93.4692715 -9.84630677 91.08365858 -3 89 C-0.84373621 96.54692326 0.04905387 104.23056782 1 112 C-11.46577706 120.71532838 -25.27526721 123.63150763 -40.3125 121.5390625 C-52.75672522 119.04434754 -62.3430565 112.91565913 -69.625 102.5 C-81.33406043 82.52117412 -81.83666525 54.81033371 -76.9765625 32.703125 C-73.48475615 19.46219533 -67.24860894 8.10041335 -56 0 C-39.06055417 -9.75751704 -16.94559466 -9.96799686 0 0 Z " fill="#040708" transform="translate(1640,215)"/>
<path d="M0 0 C0.66773438 -0.01160156 1.33546875 -0.02320313 2.0234375 -0.03515625 C6.64681499 -0.00795991 9.81841391 0.97466323 13.75 3.375 C18.18579943 9.28939924 16.89519764 19.23996428 16.8918457 26.21362305 C16.89532013 27.3884021 16.89879456 28.56318115 16.90237427 29.77355957 C16.90970798 32.31622027 16.91506602 34.85888728 16.91866493 37.40155602 C16.9258465 41.4232607 16.94117091 45.44484473 16.96000671 49.46650696 C16.9663426 50.84624381 16.97266824 52.22598071 16.97898388 53.60571766 C16.98214969 54.29626826 16.9853155 54.98681886 16.98857725 55.69829524 C17.03059168 65.05251077 17.0636628 74.40668255 17.07592773 83.76098633 C17.08430326 90.08421739 17.10676563 96.40722936 17.1452834 102.73035079 C17.16504442 106.07284791 17.17523667 109.41472955 17.17244911 112.75732994 C17.17010696 116.48007854 17.19217841 120.20193251 17.2199707 123.92456055 C17.21336929 125.03062149 17.20676788 126.13668243 17.19996643 127.27626038 C17.21243408 128.28975555 17.22490173 129.30325073 17.23774719 130.34745789 C17.24013555 131.22697459 17.2425239 132.1064913 17.24498463 133.01266003 C17.92658599 136.20102661 19.19370295 137.4061088 21.75 139.375 C26.59452515 139.75948612 29.93043621 139.33891276 34.75 138.375 C35.41 145.965 36.07 153.555 36.75 161.375 C23.6802266 166.60290936 10.55995829 170.031537 -3.25 165.375 C-10.5242485 161.52392726 -15.21772611 155.90228891 -17.65810585 148.10847664 C-18.85739935 142.56991749 -18.63754769 136.95969745 -18.59057617 131.31811523 C-18.58972849 129.91779092 -18.5902078 128.51746527 -18.59190369 127.11714172 C-18.59275955 123.34081678 -18.57520069 119.56478146 -18.55418181 115.78852344 C-18.53534629 111.8327501 -18.53365918 107.8769691 -18.53010559 103.92115784 C-18.52080523 96.44154169 -18.49621885 88.96205809 -18.46605712 81.48250014 C-18.43245033 72.96252064 -18.41601136 64.4425346 -18.40097082 55.92250526 C-18.36966734 38.40659368 -18.31694622 20.89081088 -18.25 3.375 C-16.67380688 2.87817551 -15.09560621 2.38771751 -13.51660156 1.89990234 C-12.63796448 1.62608734 -11.75932739 1.35227234 -10.85406494 1.07015991 C-7.11666532 0.07245423 -3.87568555 -0.02279815 0 0 Z " fill="#040608" transform="translate(1413.25,169.625)"/>
<path d="M0 0 C3.41700879 0.01076223 6.83349471 -0.00000543 10.25048828 -0.01269531 C29.56273813 -0.02549617 48.73715303 1.16581395 67.84814453 4.01074219 C68.98815918 4.17775635 70.12817383 4.34477051 71.30273438 4.5168457 C91.51350909 7.57132602 111.74018618 11.20138199 131.28564453 17.26074219 C131.28564453 17.59074219 131.28564453 17.92074219 131.28564453 18.26074219 C120.30805702 17.71402092 109.3904471 16.85089169 98.45361328 15.76074219 C97.65702805 15.68381134 96.86044281 15.60688049 96.03971863 15.52761841 C94.285673 15.35764728 92.53212092 15.18244282 90.77929688 15.00030518 C81.7069413 14.1357164 72.65861401 14.07862634 63.55517578 14.05761719 C62.71373205 14.05478981 61.87228832 14.05196243 61.0053463 14.04904938 C56.53228836 14.03412849 52.05926195 14.02486019 47.58618164 14.02050781 C43.96498292 14.016167 40.34402835 14.00243788 36.72290039 13.97949219 C5.91240733 13.78819693 -24.22355205 15.51499094 -54.71435547 20.26074219 C-55.73698486 20.41446289 -55.73698486 20.41446289 -56.78027344 20.57128906 C-79.36086192 24.01149821 -101.89716047 29.55826721 -123.71435547 36.26074219 C-124.98255127 36.64576904 -124.98255127 36.64576904 -126.27636719 37.03857422 C-128.82068808 37.81314128 -131.36197811 38.59673445 -133.90185547 39.38574219 C-134.6440332 39.61527588 -135.38621094 39.84480957 -136.15087891 40.08129883 C-140.93910224 41.59850377 -145.58737059 43.36154865 -150.23852539 45.25634766 C-152.54503922 46.19205398 -154.86157537 47.09207012 -157.18701172 47.97949219 C-191.44984309 61.19760253 -224.24972761 78.91509372 -252.71435547 102.26074219 C-253.2399707 102.69161133 -253.76558594 103.12248047 -254.30712891 103.56640625 C-265.04658488 112.41103814 -275.90795014 121.43878634 -284.71435547 132.26074219 C-284.71435547 128.28585864 -282.83590223 126.42486583 -280.46435547 123.44824219 C-279.78880615 122.58936401 -279.78880615 122.58936401 -279.09960938 121.71313477 C-277.65020396 119.88535355 -276.18563604 118.07095141 -274.71435547 116.26074219 C-274.25448242 115.69355469 -273.79460937 115.12636719 -273.32080078 114.54199219 C-262.09906013 100.81858961 -249.70045594 88.16912139 -235.71435547 77.26074219 C-234.61018202 76.34722223 -233.50878124 75.43034413 -232.40966797 74.51074219 C-185.09761509 35.22229499 -123.72677895 12.81114564 -63.40185547 3.94824219 C-62.40404053 3.80088623 -61.40622559 3.65353027 -60.37817383 3.50170898 C-40.34298445 0.79921445 -20.19894331 -0.07529355 0 0 Z " fill="#FBFDFA" transform="translate(423.71435546875,74.7392578125)"/>
<path d="M0 0 C4.10704098 4.79399198 3.40089219 10.25086095 3.34057617 16.21606445 C3.34123329 17.91428093 3.34123329 17.91428093 3.34190369 19.64680481 C3.33981507 23.38580621 3.31647973 27.12435825 3.29296875 30.86328125 C3.28737308 33.45688126 3.28310284 36.05048443 3.28010559 38.64408875 C3.2698248 44.77096956 3.24618493 50.89766516 3.21605712 57.02447623 C3.18249529 64.00146205 3.16602265 70.97845567 3.15097082 77.95550215 C3.11963469 92.30376874 3.06462983 106.65184567 3 121 C-8.55 121 -20.1 121 -32 121 C-32 81.4 -32 41.8 -32 1 C-21.87418231 -2.79718164 -10.06280786 -5.81538995 0 0 Z " fill="#040608" transform="translate(1044,213)"/>
<path d="M0 0 C0.33 0 0.66 0 1 0 C1.16955707 5.78450455 0.66506816 10.92866586 -0.625 16.5625 C-0.80321289 17.34407471 -0.98142578 18.12564941 -1.16503906 18.9309082 C-8.36904861 48.95066204 -27.23513048 74.10529787 -52 92 C-52.86334961 92.63566895 -52.86334961 92.63566895 -53.74414062 93.28417969 C-76.70857199 110.05001875 -105.11032201 120.2158291 -133 125 C-133.80630859 125.14663086 -134.61261719 125.29326172 -135.44335938 125.44433594 C-174.21599019 132.28916256 -214.61594142 127.56253903 -252 116 C-252 115.67 -252 115.34 -252 115 C-247.65504331 114.82265483 -244.22566696 115.21911056 -240.08569336 116.4609375 C-235.89702245 117.54352972 -231.59668253 118.00523193 -227.3125 118.5625 C-226.39533203 118.68818359 -225.47816406 118.81386719 -224.53320312 118.94335938 C-175.51998487 125.48530535 -124.8522286 119.82037904 -81 96 C-79.8346875 95.38640625 -78.669375 94.7728125 -77.46875 94.140625 C-63.16790591 86.34602079 -50.69947908 76.26683271 -39 65 C-38.35933594 64.41089844 -37.71867188 63.82179688 -37.05859375 63.21484375 C-19.1453644 46.29910281 -7.70333887 23.0390181 0 0 Z " fill="#1DAB4C" transform="translate(653,221)"/>
<path d="M0 0 C0.99 0.66 1.98 1.32 3 2 C3 2.66 3 3.32 3 4 C3.72445313 3.71125 4.44890625 3.4225 5.1953125 3.125 C15.20599251 -0.71910112 15.20599251 -0.71910112 20 0 C20.99 0.66 21.98 1.32 23 2 C23 2.66 23 3.32 23 4 C24.16015625 3.566875 24.16015625 3.566875 25.34375 3.125 C31.45769802 0.945771 36.5004018 -0.70904708 43 0 C43.99 0.66 44.98 1.32 46 2 C46 2.66 46 3.32 46 4 C46.61746094 3.71125 47.23492188 3.4225 47.87109375 3.125 C53.54428332 0.63812238 58.75691017 -1.15712441 65 0 C67.67848546 2.67848546 67.30504006 4.13970861 67.4140625 7.8828125 C67.45273438 9.04941406 67.49140625 10.21601563 67.53125 11.41796875 C67.5621875 12.64128906 67.593125 13.86460937 67.625 15.125 C67.66367188 16.35605469 67.70234375 17.58710938 67.7421875 18.85546875 C67.8366999 21.90349376 67.92225494 24.95150862 68 28 C69.65 28 71.3 28 73 28 C71.36175905 30.77788683 70.06132301 32.66536644 66.90625 33.66015625 C63.02221695 34.22334104 60.64332069 34.2814528 57 32.6875 C55 31 55 31 54 29 C53.360625 29.639375 52.72125 30.27875 52.0625 30.9375 C48.08096776 33.61894008 44.76728323 34.22621555 40 34 C36.5 32.75 36.5 32.75 34 31 C33.08110847 28.24332541 32.89187298 26.70387521 32.9375 23.875 C32.94523437 23.08609375 32.95296875 22.2971875 32.9609375 21.484375 C32.98697917 19.828125 33.01302083 18.171875 33.0390625 16.515625 C33.04679687 15.72671875 33.05453125 14.9378125 33.0625 14.125 C33.07410156 13.40570313 33.08570313 12.68640625 33.09765625 11.9453125 C33.07623121 9.78158482 33.07623121 9.78158482 32 7 C29.36 6.67 26.72 6.34 24 6 C24.01571045 6.59949463 24.0314209 7.19898926 24.04760742 7.81665039 C24.1104413 10.56516877 24.14914235 13.31353542 24.1875 16.0625 C24.21263672 17.00544922 24.23777344 17.94839844 24.26367188 18.91992188 C24.34284991 26.49462034 23.32422687 32.04083738 17.875 37.6875 C13.15629251 42.81037944 9.12127013 48.39282976 5 54 C6.32 54 7.64 54 9 54 C8.06896676 56.32758311 7.34617872 57.74357132 5.3125 59.25 C2.01294404 60.32012626 -0.55037045 60.3631189 -4 60 C-7 58.4375 -7 58.4375 -9 56 C-8.87477118 50.12120249 -7.20711979 47.48078426 -3.125 43.375 C0.11722722 40.07605743 2.78061723 37.07131806 5 33 C4.01 33.495 4.01 33.495 3 34 C-1.99220285 34.37677003 -4.98020143 34.07396361 -9 31 C-10.20096707 28.59806586 -10.05928494 27.24179084 -9.95703125 24.5703125 C-9.93576172 23.69246094 -9.91449219 22.81460937 -9.89257812 21.91015625 C-9.83940636 20.0608163 -9.77439522 18.21177699 -9.69726562 16.36328125 C-9.4891125 10.97056478 -9.4891125 10.97056478 -12.01171875 6.3671875 C-12.66785156 5.91601562 -13.32398438 5.46484375 -14 5 C-13.67 4.01 -13.34 3.02 -13 2 C-8.61111589 0.36492553 -4.67428158 -0.42493469 0 0 Z M3 7 C2.91299658 8.63472882 2.89298937 10.27314055 2.90234375 11.91015625 C2.90556641 12.89951172 2.90878906 13.88886719 2.91210938 14.90820312 C2.92048828 15.94912109 2.92886719 16.99003906 2.9375 18.0625 C2.94201172 19.10728516 2.94652344 20.15207031 2.95117188 21.22851562 C2.96300087 23.8190666 2.97948311 26.40950559 3 29 C7.41522109 27.73025028 7.41522109 27.73025028 11 25 C11.19939483 22.49583553 11.27843043 20.12687809 11.25 17.625 C11.25773437 16.95210938 11.26546875 16.27921875 11.2734375 15.5859375 C11.25889608 11.8924164 11.02663956 9.13646599 9 6 C5.71069596 5.63314303 5.71069596 5.63314303 3 7 Z M47 6 C45.76517816 9.70446553 45.85441798 13.1443008 45.875 17 C45.87113281 17.72445313 45.86726563 18.44890625 45.86328125 19.1953125 C45.86918073 22.39282879 45.98194202 24.94582607 47 28 C49.93443402 27.73343428 49.93443402 27.73343428 53 27 C55.63446996 23.04829506 55.03519063 19.90619397 54.6875 15.375 C54.63916016 14.58609375 54.59082031 13.7971875 54.54101562 12.984375 C54.6139354 9.17768859 54.6139354 9.17768859 53 6 C51.00041636 5.95919217 48.99954746 5.95745644 47 6 Z " fill="#040809" transform="translate(1082,371)"/>
<path d="M0 0 C2.59227518 4.86051596 2.18689553 9.65271133 2 15 C4.64 15 7.28 15 10 15 C10.495 16.98 10.495 16.98 11 19 C6.05 21.97 6.05 21.97 1 25 C2.340625 24.649375 3.68125 24.29875 5.0625 23.9375 C9.32072503 22.9904815 12.70912736 22.94917405 17 24 C19 26 19 26 19.22705078 29.43994141 C19.22673369 30.91051979 19.21540987 32.38112142 19.1953125 33.8515625 C19.1924826 34.62559418 19.18965271 35.39962585 19.18673706 36.19711304 C19.17552754 38.67323157 19.15042203 41.1489905 19.125 43.625 C19.11497118 45.30207812 19.10584516 46.97916189 19.09765625 48.65625 C19.07558574 52.77097223 19.04105102 56.88542511 19 61 C19.52674316 60.71560059 20.05348633 60.43120117 20.59619141 60.13818359 C21.29921387 59.77031738 22.00223633 59.40245117 22.7265625 59.0234375 C23.41830566 58.65653809 24.11004883 58.28963867 24.82275391 57.91162109 C28.39199461 56.41716664 31.16994205 56.60378711 35 57 C37 59 37 59 37.1953125 60.9453125 C37.13020833 62.96354167 37.06510417 64.98177083 37 67 C37.66 67 38.32 67 39 67 C38.34 68.32 37.68 69.64 37 71 C35.5629191 71.05422947 34.12524538 71.09289723 32.6875 71.125 C31.48673828 71.15980469 31.48673828 71.15980469 30.26171875 71.1953125 C28 71 28 71 25 69 C24.8125 65.875 24.8125 65.875 25 63 C24.360625 63.474375 23.72125 63.94875 23.0625 64.4375 C19.19912644 66.40860896 15.35754483 67.52977 11 67 C8.39941406 65.40136719 8.39941406 65.40136719 6 63 C5.35644531 59.8996582 5.35644531 59.8996582 5.328125 56.30078125 C5.30363281 55.00978516 5.27914062 53.71878906 5.25390625 52.38867188 C5.2516136 51.02994923 5.25032354 49.67122454 5.25 48.3125 C5.22160467 45.64176122 5.18074429 42.97138838 5.140625 40.30078125 C5.13579102 39.11653564 5.13095703 37.93229004 5.12597656 36.7121582 C5.30903922 34.08452712 5.30903922 34.08452712 4 33 C-1.02499694 33.28469203 -1.02499694 33.28469203 -5 36 C-5.27827252 38.6215642 -5.27827252 38.6215642 -5.1953125 41.6640625 C-5.18886719 42.78554688 -5.18242188 43.90703125 -5.17578125 45.0625 C-5.15902344 46.238125 -5.14226563 47.41375 -5.125 48.625 C-5.11597656 49.80835938 -5.10695313 50.99171875 -5.09765625 52.2109375 C-5.07402812 55.14082523 -5.04108514 58.0703134 -5 61 C-3.68 61 -2.36 61 -1 61 C-1.97297293 63.65356255 -2.69218652 64.80987991 -5.125 66.3125 C-9.21093768 67.28957205 -11.8760608 66.93121208 -16 66 C-18.57675354 63.60017985 -18.98339907 62.13022027 -19.43237305 58.60839844 C-19.45855713 57.2887207 -19.48474121 55.96904297 -19.51171875 54.609375 C-19.52966995 53.90476135 -19.54762115 53.20014771 -19.56611633 52.47418213 C-19.62011858 50.23284821 -19.65408088 47.99172595 -19.6875 45.75 C-19.72068218 44.22653311 -19.75517269 42.70309411 -19.79101562 41.1796875 C-19.87583738 37.4533284 -19.94269724 33.72689537 -20 30 C-20.99 29.67 -21.98 29.34 -23 29 C-22.505 27.515 -22.505 27.515 -22 26 C-17.23139407 23.79015823 -13.13861032 23.83152097 -8 24 C-5.04491137 24.34370205 -5.04491137 24.34370205 -3.61328125 22.6875 C-2.96939453 21.8521875 -2.96939453 21.8521875 -2.3125 21 C-1.549375 20.01 -0.78625 19.02 0 18 C-0.71027344 18.01160156 -1.42054688 18.02320313 -2.15234375 18.03515625 C-3.07144531 18.04417969 -3.99054687 18.05320312 -4.9375 18.0625 C-5.85402344 18.07410156 -6.77054688 18.08570313 -7.71484375 18.09765625 C-10 18 -10 18 -11 17 C-11.13157909 15.23099227 -11.2303547 13.4594914 -11.3125 11.6875 C-11.6486105 7.1378772 -11.6486105 7.1378772 -14.0625 3.3125 C-14.701875 2.879375 -15.34125 2.44625 -16 2 C-10.20377279 -0.32637691 -6.13909603 -1.43680971 0 0 Z " fill="#040809" transform="translate(734,362)"/>
<path d="M0 0 C0.98484375 0.00902344 1.9696875 0.01804687 2.984375 0.02734375 C4.10585938 0.04474609 4.10585938 0.04474609 5.25 0.0625 C5.33378906 0.80371094 5.41757812 1.54492188 5.50390625 2.30859375 C6.40583811 5.63771396 7.65810444 6.82430205 10.1875 9.125 C13.8092238 12.44436573 16.06124591 14.77715481 16.47705078 19.81152344 C16.46657715 20.83793945 16.45610352 21.86435547 16.4453125 22.921875 C16.43886719 24.03691406 16.43242188 25.15195312 16.42578125 26.30078125 C16.40902344 27.45964844 16.39226563 28.61851562 16.375 29.8125 C16.36597656 30.98683594 16.35695313 32.16117187 16.34765625 33.37109375 C16.32410063 36.26843536 16.29120652 39.16536441 16.25 42.0625 C17.24 41.7325 18.23 41.4025 19.25 41.0625 C21.0596818 40.94369646 22.87396447 40.8873035 24.6875 40.875 C25.63496094 40.86082031 26.58242188 40.84664063 27.55859375 40.83203125 C30.32843458 41.06921646 31.93184232 41.5575457 34.25 43.0625 C35.7307848 46.0240696 35.60314037 48.89756295 35.8125 52.1875 C35.89628906 53.46882813 35.98007812 54.75015625 36.06640625 56.0703125 C36.15728516 57.55144531 36.15728516 57.55144531 36.25 59.0625 C33.18570224 60.59464888 30.6334358 60.29188548 27.25 60.0625 C24.3125 58.5625 24.3125 58.5625 22.25 57.0625 C21.26 57.7225 20.27 58.3825 19.25 59.0625 C13.08103306 60.3991095 9.78537891 60.11260675 4.25 57.0625 C2.84570967 54.25391935 3.1912779 51.97688398 3.2578125 48.83984375 C3.27457031 47.57849609 3.29132812 46.31714844 3.30859375 45.01757812 C3.34934201 42.36603095 3.40431834 39.71572925 3.46484375 37.06445312 C3.83147207 26.63298024 3.83147207 26.63298024 0.25 17.0625 C-1.52827856 15.91382397 -1.52827856 15.91382397 -3.75 16.0625 C-6.61805603 17.40024719 -6.61805603 17.40024719 -8.75 20.0625 C-9.26714967 22.86632813 -9.47228209 25.08657947 -9.45703125 27.890625 C-9.47215256 28.63963074 -9.48727386 29.38863647 -9.50285339 30.16033936 C-9.54572559 32.54469923 -9.554567 34.92779314 -9.5625 37.3125 C-9.58564499 38.93232531 -9.61101034 40.55212052 -9.63867188 42.171875 C-9.70151837 46.13552852 -9.73385743 50.09839224 -9.75 54.0625 C-7.77 54.0625 -5.79 54.0625 -3.75 54.0625 C-6.43784954 57.23904946 -8.14641222 58.88691083 -12.1875 60.0625 C-16.27028484 60.0625 -18.37008342 59.31577772 -21.75 57.0625 C-23.00282725 53.30401826 -22.87381835 49.80759081 -22.84765625 45.89453125 C-22.84553383 44.70231209 -22.84553383 44.70231209 -22.84336853 43.48600769 C-22.83777378 40.94896675 -22.82522228 38.41201425 -22.8125 35.875 C-22.80748432 34.15429815 -22.80292153 32.43359492 -22.79882812 30.71289062 C-22.78780607 26.4960597 -22.77054506 22.27929484 -22.75 18.0625 C-24.07 17.7325 -25.39 17.4025 -26.75 17.0625 C-26.255 15.5775 -26.255 15.5775 -25.75 14.0625 C-19.72593615 12.59587681 -14.92924569 11.82665086 -8.75 13.0625 C-7.43 13.0625 -6.11 13.0625 -4.75 13.0625 C-7.47190685 8.84145001 -7.47190685 8.84145001 -10.75 5.0625 C-10.375 2.9375 -10.375 2.9375 -9.75 1.0625 C-6.43929162 0.06140485 -3.44915231 -0.04106134 0 0 Z M18.25 45.0625 C15.90026182 46.96005144 15.90026182 46.96005144 16.125 50.1875 C16.16625 51.13625 16.2075 52.085 16.25 53.0625 C18.09725052 53.75409401 18.09725052 53.75409401 20.25 54.0625 C21.24 53.4025 22.23 52.7425 23.25 52.0625 C23.66666667 49.5625 23.66666667 49.5625 23.25 47.0625 C22.59 46.4025 21.93 45.7425 21.25 45.0625 C20.26 45.0625 19.27 45.0625 18.25 45.0625 Z " fill="#040909" transform="translate(982.75,368.9375)"/>
<path d="M0 0 C0.61875 0.28875 1.2375 0.5775 1.875 0.875 C2.61492188 0.57207031 3.35484375 0.26914062 4.1171875 -0.04296875 C8.91469842 -1.92527828 13.80995442 -1.81060009 18.875 -1.125 C22.125 1.0625 22.125 1.0625 23.875 3.875 C24.1875 6.6875 24.1875 6.6875 23.875 8.875 C24.45507812 8.730625 25.03515625 8.58625 25.6328125 8.4375 C30.10288874 7.37530367 34.25022468 6.43454521 38.875 6.875 C41.875 8.875 41.875 8.875 42.38671875 10.93359375 C42.44472656 11.71863281 42.50273438 12.50367188 42.5625 13.3125 C42.66111328 14.48619141 42.66111328 14.48619141 42.76171875 15.68359375 C42.85107456 17.41216642 42.875 19.14411932 42.875 20.875 C33.79807692 22.41346154 33.79807692 22.41346154 29.875 19.875 C28.625 17.375 28.625 17.375 27.875 14.875 C27.38 13.885 27.38 13.885 26.875 12.875 C25.885 12.545 24.895 12.215 23.875 11.875 C23.82104522 13.49963842 23.78222805 15.12478541 23.75 16.75 C23.72679687 17.65492188 23.70359375 18.55984375 23.6796875 19.4921875 C23.63175164 22.06306994 23.63175164 22.06306994 25.875 23.875 C26.865 23.875 27.855 23.875 28.875 23.875 C27.875 26.875 27.875 26.875 25.125 28.625 C20.41726753 30.52375281 15.79224385 29.69234298 10.86328125 29.1015625 C8.16785939 28.89720372 6.40725055 29.02475529 3.875 29.875 C4.19210937 30.42671875 4.50921875 30.9784375 4.8359375 31.546875 C7.66654555 37.88913966 7.00415517 46.02977573 6.875 52.875 C8.525 52.875 10.175 52.875 11.875 52.875 C9.17686574 56.16335113 7.07159079 58.19037967 2.875 58.9375 C-0.18117244 59.12237244 -1.19271394 58.84186339 -4.0625 57.4375 C-7.34014325 53.36527656 -7.27164168 49.24221564 -6.9609375 44.2265625 C-6.91195312 43.30617188 -6.86296875 42.38578125 -6.8125 41.4375 C-6.73386719 40.59316406 -6.65523437 39.74882812 -6.57421875 38.87890625 C-7.18117276 35.56863934 -8.12002943 34.39096705 -10.12109375 31.75 C-13.93704664 26.34768406 -13.83215148 21.74687036 -13.5 15.3125 C-13.47292969 14.30380859 -13.44585938 13.29511719 -13.41796875 12.25585938 C-13.34794227 9.79326146 -13.24982459 7.33532468 -13.125 4.875 C-14.445 4.545 -15.765 4.215 -17.125 3.875 C-17.125 3.215 -17.125 2.555 -17.125 1.875 C-5.61359935 -2.97190554 -5.61359935 -2.97190554 0 0 Z M1.6875 5.25 C-1.13017167 9.33076587 -0.55085559 13.29573499 -0.375 18.125 C-0.35695313 19.06085938 -0.33890625 19.99671875 -0.3203125 20.9609375 C-0.27325673 23.26667015 -0.20753713 25.57030945 -0.125 27.875 C3.6660119 26.42549545 7.2624638 24.72327434 10.875 22.875 C10.90190104 20.08326945 10.92179053 17.29179652 10.9375 14.5 C10.94587891 13.7059375 10.95425781 12.911875 10.96289062 12.09375 C11.10540151 7.85107778 11.10540151 7.85107778 9.875 3.875 C6.56608339 3.5741894 4.54371766 3.45466319 1.6875 5.25 Z " fill="#050A0A" transform="translate(834.125,370.125)"/>
<path d="M0 0 C2 2 2 2 2.22705078 3.97119141 C2.21657715 4.75671387 2.20610352 5.54223633 2.1953125 6.3515625 C2.18886719 7.20234375 2.18242188 8.053125 2.17578125 8.9296875 C2.15902344 9.81914062 2.14226563 10.70859375 2.125 11.625 C2.11597656 12.5221875 2.10695313 13.419375 2.09765625 14.34375 C2.0740497 16.56276586 2.0411231 18.78125077 2 21 C3.08023438 20.52304687 4.16046875 20.04609375 5.2734375 19.5546875 C8.85375348 17.97387973 12.04820567 17.14636275 16 17 C20.31051461 18.76339234 21.72662329 21.0732584 24 25 C24.99 25.33 25.98 25.66 27 26 C27 26.66 27 27.32 27 28 C22.15860738 30.05759186 18.0118015 30.6706005 13 29 C11.29503463 27.37253306 9.62102968 25.71108689 8 24 C5.68983403 24.12834255 4.63394255 24.36605745 3 26 C2.92680379 28.69654854 2.90757463 31.36691458 2.9375 34.0625 C2.94201172 34.82111328 2.94652344 35.57972656 2.95117188 36.36132812 C2.9629932 38.24091871 2.98092922 40.12046899 3 42 C3.56847656 41.84015625 4.13695312 41.6803125 4.72265625 41.515625 C9.59782198 40.41181389 14.30826027 40.3655976 19 42.125 C21 44 21 44 21.9375 46.8125 C22.00621077 50.31674905 21.3079314 52.76864007 20 56 C20.66 56 21.32 56 22 56 C21.67 56.99 21.34 57.98 21 59 C16.26785472 59.92787162 13.33274596 60.22826935 9 58 C8.01 57.505 8.01 57.505 7 57 C5.23079456 57.62762982 5.23079456 57.62762982 3.3125 58.5625 C-1.01937687 60.29840694 -3.64714077 59.82820088 -8 58 C-10.82879286 55.17120714 -10.3142666 53.20075802 -10.4140625 49.2421875 C-10.43342865 48.57913605 -10.4527948 47.91608459 -10.4727478 47.23294067 C-10.53255954 45.11375823 -10.57893388 42.9945215 -10.625 40.875 C-10.66317845 39.43877831 -10.70223011 38.00257955 -10.7421875 36.56640625 C-10.83826125 33.04448064 -10.92228642 29.52238392 -11 26 C-12.65 25.34 -14.3 24.68 -16 24 C-16.825 24.804375 -17.65 25.60875 -18.5 26.4375 C-22.27586053 29.57958725 -25.11997459 29.92253928 -30 30 C-33 29.0625 -33 29.0625 -35 28 C-35 26 -35 26 -32.625 23.5625 C-31.75875 22.716875 -30.8925 21.87125 -30 21 C-29.34 20.01 -28.68 19.02 -28 18 C-21.98209749 15.68542211 -16.59825251 18.67901631 -11 21 C-10.97306425 18.87506859 -10.95363372 16.75004088 -10.9375 14.625 C-10.92589844 13.44164062 -10.91429687 12.25828125 -10.90234375 11.0390625 C-10.78533407 8.08078479 -10.78533407 8.08078479 -12 6 C-12.99 5.67 -13.98 5.34 -15 5 C-15 4.34 -15 3.68 -15 3 C-9.76245717 0.79471881 -5.79028146 -0.57902815 0 0 Z M5 45 C4.01 45.66 3.02 46.32 2 47 C1.58333333 49.5 1.58333333 49.5 2 52 C2.66 52.66 3.32 53.32 4 54 C6.60280568 53.67958603 6.60280568 53.67958603 9 53 C9 51.02 9 49.04 9 47 C7.68 46.34 6.36 45.68 5 45 Z " fill="#050909" transform="translate(929,369)"/>
<path d="M0 0 C2.49118953 3.7367843 2.2065226 5.74451819 2.125 10.1875 C2.10695313 11.45980469 2.08890625 12.73210937 2.0703125 14.04296875 C2.04710937 15.01878906 2.02390625 15.99460937 2 17 C2.99 16.67 3.98 16.34 5 16 C9.3883027 14.90292432 13.74754771 14.74042213 18.25 14.6875 C18.94738281 14.67009766 19.64476562 14.65269531 20.36328125 14.63476562 C23.32007705 14.63761418 25.57029661 14.77037368 28.20117188 16.17626953 C30 18 30 18 30.45410156 20.54370117 C30.4331543 21.53345947 30.41220703 22.52321777 30.390625 23.54296875 C30.37773438 24.61611328 30.36484375 25.68925781 30.3515625 26.79492188 C30.31804687 27.91447266 30.28453125 29.03402344 30.25 30.1875 C30.23195313 31.31865234 30.21390625 32.44980469 30.1953125 33.61523438 C30.14812652 36.41100376 30.08230595 39.20507972 30 42 C32.475 41.505 32.475 41.505 35 41 C35 41.99 35 42.98 35 44 C31.31878411 47.20622029 27.8447238 47.37492053 23.18359375 47.49609375 C19.85924081 46.74082931 18.89087395 45.87667789 17 43 C16.51046489 39.40434357 16.62467102 35.87007941 16.75 32.25 C16.76804687 31.26644531 16.78609375 30.28289062 16.8046875 29.26953125 C16.85175874 26.84536217 16.91749258 24.42317941 17 22 C11.94473963 20.9712168 11.94473963 20.9712168 7.125 22.3125 C4.9104069 23.82725163 4.9104069 23.82725163 4 26 C3.91456105 28.10528933 3.89285275 30.21331157 3.90234375 32.3203125 C3.90717773 34.20556641 3.90717773 34.20556641 3.91210938 36.12890625 C3.92048828 37.44761719 3.92886719 38.76632812 3.9375 40.125 C3.94251511 41.46484211 3.94707799 42.804686 3.95117188 44.14453125 C3.96298914 47.42973206 3.97946383 50.71484397 4 54 C5.65 54 7.3 54 9 54 C8 57 8 57 6.36328125 57.984375 C1.8603581 59.66546631 -1.23257643 60.4413141 -6 59 C-9 57 -9 57 -9.67700195 55.16894531 C-10.29124602 51.04427086 -10.18462158 46.91219749 -10.1875 42.75 C-10.19974609 41.83347656 -10.21199219 40.91695313 -10.22460938 39.97265625 C-10.23674235 34.30251453 -9.78596624 29.40027757 -8 24 C-5.375 21.5 -5.375 21.5 -3 20 C-4.134375 19.855625 -5.26875 19.71125 -6.4375 19.5625 C-10 19 -10 19 -11 18 C-11.20298351 15.18980604 -11.31933064 12.38184134 -11.42578125 9.56640625 C-11.72318853 6.84328964 -11.72318853 6.84328964 -14.04296875 5.65234375 C-14.68878906 5.43707031 -15.33460938 5.22179687 -16 5 C-16 4.34 -16 3.68 -16 3 C-10.61420872 0.94826999 -5.85642767 -0.71711359 0 0 Z " fill="#040909" transform="translate(1034,369)"/>
<path d="M0 0 C0 2.97 0 5.94 0 9 C2.64 9.33 5.28 9.66 8 10 C8.495 18.415 8.495 18.415 9 27 C10.340625 26.484375 11.68125 25.96875 13.0625 25.4375 C17.40221782 23.99548353 20.50862419 23.74241477 25 25 C26.625 26.1875 26.625 26.1875 28 28 C28.89343461 29.06451783 29.7894611 30.12686352 30.6875 31.1875 C31.450625 32.115625 32.21375 33.04375 33 34 C28.72232753 36.41528446 24.83251234 36.89362437 20 36 C17.25 33.5 17.25 33.5 15 31 C12.28836222 30.58013054 12.28836222 30.58013054 10 31 C8.61691219 33.76617563 8.88789804 36.01018 8.90234375 39.1015625 C8.90556641 40.31328125 8.90878906 41.525 8.91210938 42.7734375 C8.92048828 44.04445313 8.92886719 45.31546875 8.9375 46.625 C8.94201172 47.90375 8.94652344 49.1825 8.95117188 50.5 C8.96298797 53.66671292 8.97946185 56.83333356 9 60 C10.65 60 12.3 60 14 60 C11.25603093 63.34421231 9.21843388 65.29736035 4.9375 65.9375 C-0.60623229 66.02549575 -0.60623229 66.02549575 -3 64 C-4.84039796 60.2566363 -5.22981766 57.29412461 -5.16015625 53.1484375 C-5.14919922 52.05015625 -5.13824219 50.951875 -5.12695312 49.8203125 C-5.10568359 48.68335938 -5.08441406 47.54640625 -5.0625 46.375 C-5.02809693 44.11204251 -4.99794947 41.84901514 -4.97265625 39.5859375 C-4.95468994 38.5861084 -4.93672363 37.5862793 -4.91821289 36.55615234 C-4.88206484 33.8775933 -4.88206484 33.8775933 -6 31 C-8.31 31 -10.62 31 -13 31 C-13.28875 31.639375 -13.5775 32.27875 -13.875 32.9375 C-15 35 -15 35 -17 36 C-25.39097744 36.40601504 -25.39097744 36.40601504 -29 34 C-27.69631653 32.31003995 -26.35555293 30.64864545 -25 29 C-24.29875 28.05125 -23.5975 27.1025 -22.875 26.125 C-19.09180359 23.32872439 -16.91728073 23.79100465 -12.40234375 24.41015625 C-10 25 -10 25 -6 27 C-5.67 22.71 -5.34 18.42 -5 14 C-7.31 14 -9.62 14 -12 14 C-12.33 11.36 -12.66 8.72 -13 6 C-14.32 5.67 -15.64 5.34 -17 5 C-16 2 -16 2 -14.1796875 1.015625 C-8.94729739 -0.72259273 -5.38817626 -1.26106253 0 0 Z " fill="#040809" transform="translate(786,363)"/>
<path d="M0 0 C1.28648438 -0.03738281 2.57296875 -0.07476562 3.8984375 -0.11328125 C9.02769903 0.47276645 12.11642958 2.54383123 15.4375 6.4375 C17.75829154 12.05625847 18.41934678 17.85312201 16.5 23.6875 C14.45788237 28.27071422 11.59386683 30.51688178 6.95703125 32.390625 C3.13718978 33.44746273 -0.44271425 33.68010849 -4.375 33.6875 C-5.06078125 33.71199219 -5.7465625 33.73648438 -6.453125 33.76171875 C-11.58106874 33.79107721 -14.45577701 32.55902054 -18.375 29.3125 C-21.88911559 23.57277788 -22.08528753 17.9351809 -21.375 11.3125 C-20.07983671 7.12226581 -18.60272986 5.21801464 -14.9375 3 C-9.75540298 0.54532247 -5.76183628 0.10925638 0 0 Z " fill="#040709" transform="translate(1032.375,164.6875)"/>
<path d="M0 0 C2.31 0 4.62 0 7 0 C8.98 5.94 10.96 11.88 13 18 C14.65 12.06 16.3 6.12 18 0 C20.31 0 22.62 0 25 0 C26.46291615 9.34561968 27.45462284 18.55636393 28 28 C26.33388095 28.042721 24.66617115 28.04063832 23 28 C20.76357738 25.76357738 21.48107795 20.71346616 21.28125 17.6875 C21.29392201 15.08403248 21.29392201 15.08403248 20 14 C18.68 18.62 17.36 23.24 16 28 C14.02 28 12.04 28 10 28 C8.06606612 22.98935314 6.48598487 18.20094706 5 13 C4.34 17.95 3.68 22.9 3 28 C1.02 28 -0.96 28 -3 28 C-2.01 18.76 -1.02 9.52 0 0 Z " fill="#050A0A" transform="translate(1959,208)"/>
<path d="M0 0 C6.27 0 12.54 0 19 0 C19 1.65 19 3.3 19 5 C16.69 5 14.38 5 12 5 C12 12.59 12 20.18 12 28 C10.35 28 8.7 28 7 28 C7 20.41 7 12.82 7 5 C4.69 5 2.38 5 0 5 C0 3.35 0 1.7 0 0 Z " fill="#040608" transform="translate(1935,208)"/>
</svg>
